<svg width="37" height="40" viewBox="0 0 37 40" fill="none" xmlns="http://www.w3.org/2000/svg">
<path fill-rule="evenodd" clip-rule="evenodd" d="M2.85029 16.5409C-6.14119 -2.98772 27.6412 -5.33954 23.3503 16.5409C21.8775 24.0509 23.8929 25.3942 29.3504 27.5411C45.2784 33.8069 30.0457 48.2116 22.8504 33.0411C21.8721 30.9782 21.4534 29.4791 21.1128 28.2598C20.6986 26.7766 20.3999 25.7074 19.3503 24.5411C14.8503 19.5411 6.67259 23.0079 11.3503 29.0411C16.7731 35.4101 12.9 39.131 7.85028 39.5411C0.490804 40.1386 -0.216417 33.0263 2.35028 29.0411C4.27748 26.0487 5.35561 21.9822 2.85029 16.5409ZM17.2156 11.1744C17.3979 10.7936 17.5 10.3671 17.5 9.91667C17.5 8.30583 16.1942 7 14.5833 7C14.1329 7 13.7064 7.10209 13.3256 7.28439C12.8202 7.52627 12.1797 7.52627 11.6744 7.28439C11.2936 7.10209 10.8671 7 10.4167 7C8.80583 7 7.49999 8.30583 7.49999 9.91667C7.49999 10.3671 7.60208 10.7936 7.78437 11.1744C8.02626 11.6797 8.02626 12.3203 7.78437 12.8256C7.60208 13.2064 7.49999 13.6329 7.49999 14.0833C7.49999 15.6942 8.80583 17 10.4167 17C10.8688 17 11.3048 16.8982 11.6936 16.7156C12.1964 16.4795 12.8312 16.4807 13.3328 16.7191C13.7118 16.8992 14.1358 17 14.5833 17C16.1942 17 17.5 15.6942 17.5 14.0833C17.5 13.6329 17.3979 13.2064 17.2156 12.8256C16.9737 12.3203 16.9737 11.6797 17.2156 11.1744Z" fill="url(#paint0_linear_9_112)"/>
<path d="M23.3503 16.5409L23.4484 16.5601L23.3503 16.5409ZM2.85029 16.5409L2.75946 16.5827L2.85029 16.5409ZM29.3504 27.5411L29.387 27.448L29.3504 27.5411ZM22.8504 33.0411L22.7601 33.0839L22.8504 33.0411ZM21.1128 28.2598L21.0165 28.2867L21.1128 28.2598ZM19.3503 24.5411L19.276 24.608L19.3503 24.5411ZM11.3503 29.0411L11.2712 29.1024L11.2741 29.1059L11.3503 29.0411ZM7.85028 39.5411L7.85837 39.6407L7.85028 39.5411ZM2.35028 29.0411L2.26621 28.9869L2.35028 29.0411ZM17.2156 11.1744L17.1254 11.1312L17.2156 11.1744ZM13.3256 7.28439L13.2824 7.19419L13.3256 7.28439ZM11.6744 7.28439L11.6313 7.37458L11.6744 7.28439ZM7.78437 11.1744L7.69417 11.2176L7.78437 11.1744ZM7.78437 12.8256L7.87457 12.8688L7.78437 12.8256ZM11.6936 16.7156L11.6511 16.6251L11.6936 16.7156ZM13.3328 16.7191L13.3758 16.6288L13.3328 16.7191ZM17.2156 12.8256L17.1254 12.8688L17.2156 12.8256ZM23.4484 16.5601C24.5262 11.0642 23.2149 7.07391 20.7655 4.49501C18.319 1.91919 14.7495 0.764583 11.3332 0.912596C7.9177 1.06058 4.63928 2.51165 2.7816 5.16801C0.920569 7.82915 0.500812 11.6772 2.75946 16.5827L2.94113 16.4991C0.704033 11.6403 1.13527 7.87112 2.94549 5.28263C4.75905 2.68937 7.97215 1.2584 11.3419 1.11241C14.7109 0.966445 18.2205 2.10592 20.6205 4.63274C23.0174 7.15648 24.3198 11.0773 23.2522 16.5216L23.4484 16.5601ZM29.387 27.448C26.6524 26.3723 24.817 25.5093 23.8354 23.9977C22.8564 22.4901 22.7126 20.312 23.4484 16.5601L23.2522 16.5216C22.5152 20.2798 22.6427 22.5283 23.6676 24.1066C24.6899 25.6808 26.5909 26.563 29.3138 27.6341L29.387 27.448ZM22.7601 33.0839C24.5671 36.8938 26.8866 38.8627 29.1116 39.5583C31.3364 40.2539 33.4545 39.6717 34.8392 38.4034C36.2245 37.1346 36.8743 35.1795 36.1606 33.1441C35.448 31.1118 33.3839 29.0203 29.387 27.448L29.3138 27.6341C33.2809 29.1947 35.2857 31.2535 35.9719 33.2103C36.657 35.164 36.0354 37.0367 34.7041 38.256C33.3722 39.4758 31.3285 40.0419 29.1713 39.3674C27.0142 38.6931 24.7314 36.7736 22.9408 32.9982L22.7601 33.0839ZM21.0165 28.2867C21.3575 29.5075 21.778 31.0132 22.7601 33.0839L22.9408 32.9982C21.9661 30.9433 21.5493 29.4508 21.2091 28.2329L21.0165 28.2867ZM19.276 24.608C20.3083 25.7551 20.6021 26.8031 21.0165 28.2867L21.2091 28.2329C20.795 26.7501 20.4916 25.6597 19.4246 24.4742L19.276 24.608ZM11.4293 28.9798C10.2706 27.4854 9.91949 26.1649 10.0928 25.1057C10.2658 24.048 10.9651 23.2298 11.9528 22.7434C13.9318 21.7688 17.0536 22.1387 19.276 24.608L19.4246 24.4742C17.147 21.9435 13.9299 21.5468 11.8645 22.5639C10.83 23.0734 10.0807 23.9406 9.89538 25.0734C9.7103 26.2048 10.0911 27.5802 11.2713 29.1023L11.4293 28.9798ZM7.85837 39.6407C10.3986 39.4345 12.6716 38.3937 13.6162 36.5717C14.5657 34.7405 14.1485 32.1733 11.4264 28.9762L11.2741 29.1059C13.9749 32.2779 14.3325 34.7557 13.4387 36.4797C12.54 38.2129 10.3517 39.2376 7.84219 39.4414L7.85837 39.6407ZM2.26621 28.9869C0.968594 31.0017 0.496051 33.8081 1.28365 36.0429C1.67826 37.1625 2.38992 38.1399 3.47324 38.7984C4.55617 39.4567 6.0024 39.7914 7.85837 39.6407L7.84219 39.4414C6.01842 39.5895 4.61645 39.2593 3.57713 38.6275C2.5382 37.996 1.85358 37.0583 1.47228 35.9764C0.708074 33.808 1.16527 31.0657 2.43435 29.0952L2.26621 28.9869ZM2.75946 16.5827C5.24895 21.9896 4.17698 26.0201 2.26621 28.9869L2.43435 29.0952C4.37798 26.0774 5.46226 21.9747 2.94113 16.4991L2.75946 16.5827ZM17.4 9.91667C17.4 10.3518 17.3014 10.7636 17.1254 11.1312L17.3058 11.2176C17.4944 10.8236 17.6 10.3823 17.6 9.91667H17.4ZM14.5833 7.1C16.1389 7.1 17.4 8.36106 17.4 9.91667H17.6C17.6 8.25061 16.2494 6.9 14.5833 6.9V7.1ZM13.3687 7.37458C13.7364 7.1986 14.1482 7.1 14.5833 7.1V6.9C14.1177 6.9 13.6764 7.00558 13.2824 7.19419L13.3687 7.37458ZM11.6313 7.37458C12.1639 7.62954 12.8361 7.62954 13.3687 7.37458L13.2824 7.19419C12.8044 7.423 12.1956 7.423 11.7176 7.19419L11.6313 7.37458ZM10.4167 7.1C10.8518 7.1 11.2636 7.1986 11.6313 7.37458L11.7176 7.19419C11.3236 7.00558 10.8823 6.9 10.4167 6.9V7.1ZM7.59999 9.91667C7.59999 8.36106 8.86106 7.1 10.4167 7.1V6.9C8.7506 6.9 7.39999 8.25061 7.39999 9.91667H7.59999ZM7.87457 11.1312C7.69859 10.7636 7.59999 10.3518 7.59999 9.91667H7.39999C7.39999 10.3823 7.50557 10.8236 7.69417 11.2176L7.87457 11.1312ZM7.87457 12.8688C8.12952 12.3361 8.12952 11.6639 7.87457 11.1312L7.69417 11.2176C7.92299 11.6956 7.92299 12.3044 7.69417 12.7824L7.87457 12.8688ZM7.59999 14.0833C7.59999 13.6482 7.69859 13.2364 7.87457 12.8688L7.69417 12.7824C7.50557 13.1764 7.39999 13.6177 7.39999 14.0833H7.59999ZM10.4167 16.9C8.86106 16.9 7.59999 15.6389 7.59999 14.0833H7.39999C7.39999 15.7494 8.7506 17.1 10.4167 17.1V16.9ZM11.6511 16.6251C11.2753 16.8016 10.8538 16.9 10.4167 16.9V17.1C10.8838 17.1 11.3342 16.9949 11.7362 16.8061L11.6511 16.6251ZM13.3758 16.6288C12.8471 16.3775 12.1809 16.3763 11.6511 16.6251L11.7362 16.8061C12.2118 16.5827 12.8153 16.5838 13.2899 16.8094L13.3758 16.6288ZM14.5833 16.9C14.151 16.9 13.7416 16.8027 13.3758 16.6288L13.2899 16.8094C13.682 16.9958 14.1206 17.1 14.5833 17.1V16.9ZM17.4 14.0833C17.4 15.6389 16.1389 16.9 14.5833 16.9V17.1C16.2494 17.1 17.6 15.7494 17.6 14.0833H17.4ZM17.1254 12.8688C17.3014 13.2364 17.4 13.6482 17.4 14.0833H17.6C17.6 13.6177 17.4944 13.1764 17.3058 12.7824L17.1254 12.8688ZM17.1254 11.1312C16.8705 11.6639 16.8705 12.3361 17.1254 12.8688L17.3058 12.7824C17.077 12.3044 17.077 11.6956 17.3058 11.2176L17.1254 11.1312Z" fill="#00A3FF"/>
<defs>
<linearGradient id="paint0_linear_9_112" x1="18.6766" y1="1" x2="18.6766" y2="39.7556" gradientUnits="userSpaceOnUse">
<stop stop-color="#00A3FF"/>
<stop offset="1" stop-color="#00F9BD"/>
</linearGradient>
</defs>
</svg>
